<?xml version="1.0" encoding="utf-8"?>
<!-- Generator: Adobe Illustrator 22.0.1, SVG Export Plug-In . SVG Version: 6.00 Build 0)  -->
<svg version="1.1" xmlns="http://www.w3.org/2000/svg" xmlns:xlink="http://www.w3.org/1999/xlink" x="0px" y="0px"
	 viewBox="0 0 512 512" style="enable-background:new 0 0 512 512;" xml:space="preserve">
<style type="text/css">
	.st0{fill:none;stroke:#FFFFFF;stroke-width:17;stroke-linejoin:round;}
	.st1{fill:none;stroke:#FFFFFF;stroke-width:17;stroke-linecap:round;stroke-linejoin:round;}
	.st2{fill:none;stroke:#FFFFFF;stroke-width:32;stroke-linecap:round;stroke-linejoin:round;}
</style>
<g id="Livello_1">
	<title>ionicons-v5-l</title>
	<path class="st0" d="M280.3,91.9h138.5c14.3,0,26,11.6,26,26v138.5c0,14.3-11.6,26-26,26H280.3c-14.3,0-26-11.6-26-26V117.8
		C254.3,103.5,265.9,91.9,280.3,91.9z"/>
	<path class="st0" d="M297.6,126.5h103.8c4.8,0,8.7,3.9,8.7,8.7V239c0,4.8-3.9,8.7-8.7,8.7H297.6c-4.8,0-8.7-3.9-8.7-8.7V135.1
		C288.9,130.4,292.8,126.5,297.6,126.5z"/>
	<line class="st1" x1="349.5" y1="91.9" x2="349.5" y2="74.6"/>
	<line class="st1" x1="392.8" y1="91.9" x2="392.8" y2="74.6"/>
	<line class="st1" x1="306.2" y1="91.9" x2="306.2" y2="74.6"/>
	<line class="st1" x1="349.5" y1="299.6" x2="349.5" y2="282.2"/>
	<line class="st1" x1="392.8" y1="299.6" x2="392.8" y2="282.2"/>
	<line class="st1" x1="306.2" y1="299.6" x2="306.2" y2="282.2"/>
	<line class="st1" x1="444.7" y1="187.1" x2="462" y2="187.1"/>
	<line class="st1" x1="444.7" y1="230.3" x2="462" y2="230.3"/>
	<line class="st1" x1="444.7" y1="143.8" x2="462" y2="143.8"/>
	<line class="st1" x1="237" y1="187.1" x2="254.3" y2="187.1"/>
	<line class="st1" x1="237" y1="230.3" x2="254.3" y2="230.3"/>
	<line class="st1" x1="237" y1="143.8" x2="254.3" y2="143.8"/>
</g>
<g id="Livello_3">
	<title>ionicons-v5-o</title>
	<path class="st2" d="M225.1,286c-45.1-49.9-108.3-39.8-145.6-109.1c-8.7-16.2-44,143.2,5.2,220.4c36,56.4,111,71.4,147.3,35.8
		S270.2,336,225.1,286z"/>
	<path class="st2" d="M120.3,311.5c39.4,63.9,86.1,108.1,154.9,138.5"/>
</g>
</svg>
