<?xml version="1.0" encoding="utf-8"?>
<!-- Generator: Adobe Illustrator 22.0.1, SVG Export Plug-In . SVG Version: 6.00 Build 0)  -->
<svg version="1.1" id="Livello_1" xmlns="http://www.w3.org/2000/svg" xmlns:xlink="http://www.w3.org/1999/xlink" x="0px" y="0px"
	 viewBox="0 0 626.8 353.2" style="enable-background:new 0 0 626.8 353.2;" xml:space="preserve">
<style type="text/css">
	.st0{clip-path:url(#SVGID_2_);}
	.st1{clip-path:url(#SVGID_4_);}
	.st2{fill:none;stroke:#B4CF6B;stroke-width:6;stroke-miterlimit:8;}
	.st3{fill:#5E5F5F;}
	.st4{font-family:'Helvetica';}
	.st5{font-size:17.549px;}
	.st6{fill:none;stroke:#B4CF6B;stroke-width:2;stroke-miterlimit:8;stroke-dasharray:6,2;}
</style>
<g>
	<defs>
		<rect id="SVGID_1_" x="161.8" y="40" width="296.1" height="274"/>
	</defs>
	<clipPath id="SVGID_2_">
		<use xlink:href="#SVGID_1_"  style="overflow:visible;"/>
	</clipPath>
	<g class="st0">
		<defs>
			<rect id="SVGID_3_" x="-56.8" y="-105.8" width="935.9" height="526.5"/>
		</defs>
		<clipPath id="SVGID_4_">
			<use xlink:href="#SVGID_3_"  style="overflow:visible;"/>
		</clipPath>
		<g class="st1">
			<defs>
				<rect id="SVGID_5_" x="38.8" y="40" width="546.8" height="274"/>
			</defs>
			<clipPath id="SVGID_6_">
				<use xlink:href="#SVGID_5_"  style="overflow:visible;"/>
			</clipPath>
			<g style="clip-path:url(#SVGID_6_);">
				
					<image style="overflow:visible;" width="886" height="445" xlink:href="BA5128152077FA07.png"  transform="matrix(0.6172 0 0 0.6158 38.8457 40.0449)">
				</image>
			</g>
		</g>
	</g>
</g>
<g>
	<circle class="st2" cx="48.9" cy="46.2" r="42"/>
	<text transform="matrix(1 0 0 1 25.4624 41.5981)" class="st3 st4 st5">Smart</text>
	<text transform="matrix(1 0 0 1 17.1753 62.1895)" class="st3 st4 st5">Security</text>
	
		<ellipse transform="matrix(4.531440e-02 -0.999 0.999 4.531440e-02 121.5656 740.1312)" class="st6" cx="448" cy="306.5" rx="33.1" ry="33.1"/>
	<circle class="st2" cx="48.9" cy="306.5" r="42"/>
	<text transform="matrix(1 0 0 1 25.4624 302.0244)" class="st3 st4 st5">Smart</text>
	<text transform="matrix(1 0 0 1 17.6631 322.3818)" class="st3 st4 st5">Industry</text>
	<circle class="st2" cx="48.9" cy="176.3" r="42"/>
	<text transform="matrix(1 0 0 1 25.4624 171.9287)" class="st3 st4 st5">Smart</text>
	<text transform="matrix(1 0 0 1 14.7378 192.2852)" class="st3 st4 st5">Metering</text>
	<circle class="st2" cx="570.7" cy="46.2" r="42"/>
	<text transform="matrix(1 0 0 1 547.2119 41.5981)" class="st3 st4 st5">Smart</text>
	<text transform="matrix(1 0 0 1 547.2119 62.1895)" class="st3 st4 st5">Home</text>
	<ellipse transform="matrix(0.1602 -0.9871 0.9871 0.1602 308.9106 717.2197)" class="st2" cx="576" cy="177.1" rx="42" ry="42"/>
	<text transform="matrix(1 0 0 1 552.4971 172.6299)" class="st3 st4 st5">Smart</text>
	<text transform="matrix(1 0 0 1 540.3105 192.9873)" class="st3 st4 st5">Buildings</text>
	<circle class="st2" cx="576" cy="306.5" r="42"/>
	<text transform="matrix(1 0 0 1 552.5 302.0244)" class="st3 st4 st5">Smart</text>
	<text transform="matrix(1 0 0 1 551.998 322.3818)"><tspan x="0" y="0" class="st3 st4 st5">T</tspan><tspan x="10.1" y="0" class="st3 st4 st5">ra</tspan><tspan x="25.7" y="0" class="st3 st4 st5">f</tspan><tspan x="30.3" y="0" class="st3 st4 st5">fic</tspan></text>
	<g>
		<defs>
			<rect id="SVGID_7_" x="437.1" y="25" width="42.6" height="42.4"/>
		</defs>
		<clipPath id="SVGID_8_">
			<use xlink:href="#SVGID_7_"  style="overflow:visible;"/>
		</clipPath>
		<g style="clip-path:url(#SVGID_8_);">
			
				<image style="overflow:visible;" width="182" height="181" xlink:href="BA5128152077FA05.png"  transform="matrix(0.234 0 0 0.234 437.1454 24.9852)">
			</image>
		</g>
	</g>
	<g>
		<defs>
			<rect id="SVGID_9_" x="464.1" y="156" width="42.6" height="42.6"/>
		</defs>
		<clipPath id="SVGID_10_">
			<use xlink:href="#SVGID_9_"  style="overflow:visible;"/>
		</clipPath>
		<g style="clip-path:url(#SVGID_10_);">
			
				<image style="overflow:visible;" width="182" height="182" xlink:href="BA5128152077FA0B.png"  transform="matrix(0.234 0 0 0.234 464.0537 156.0174)">
			</image>
		</g>
	</g>
	<g>
		<defs>
			<rect id="SVGID_11_" x="427.3" y="285.2" width="42.6" height="42.6"/>
		</defs>
		<clipPath id="SVGID_12_">
			<use xlink:href="#SVGID_11_"  style="overflow:visible;"/>
		</clipPath>
		<g style="clip-path:url(#SVGID_12_);">
			
				<image style="overflow:visible;" width="182" height="182" xlink:href="BA5128152077FA0D.png"  transform="matrix(0.234 0 0 0.234 427.3179 285.1777)">
			</image>
		</g>
	</g>
	<g>
		<defs>
			<rect id="SVGID_13_" x="153.1" y="280.3" width="42.6" height="52.4"/>
		</defs>
		<clipPath id="SVGID_14_">
			<use xlink:href="#SVGID_13_"  style="overflow:visible;"/>
		</clipPath>
		<g style="clip-path:url(#SVGID_14_);">
			
				<image style="overflow:visible;" width="182" height="224" xlink:href="BA5128152077FA0F.png"  transform="matrix(0.234 0 0 0.234 153.0862 280.264)">
			</image>
		</g>
	</g>
	<g>
		<defs>
			<rect id="SVGID_15_" x="110.3" y="152.3" width="42.6" height="48"/>
		</defs>
		<clipPath id="SVGID_16_">
			<use xlink:href="#SVGID_15_"  style="overflow:visible;"/>
		</clipPath>
		<g style="clip-path:url(#SVGID_16_);">
			
				<image style="overflow:visible;" width="182" height="205" xlink:href="BA5128152077FA0C.png"  transform="matrix(0.234 0 0 0.234 110.2668 152.2736)">
			</image>
		</g>
	</g>
	<g>
		<defs>
			<rect id="SVGID_17_" x="148.9" y="25" width="42.6" height="42.4"/>
		</defs>
		<clipPath id="SVGID_18_">
			<use xlink:href="#SVGID_17_"  style="overflow:visible;"/>
		</clipPath>
		<g style="clip-path:url(#SVGID_18_);">
			
				<image style="overflow:visible;" width="182" height="181" xlink:href="BA5128152077FA04.png"  transform="matrix(0.234 0 0 0.234 148.8745 24.9852)">
			</image>
		</g>
	</g>
	<circle class="st6" cx="170.5" cy="46.2" r="33.1"/>
	
		<ellipse transform="matrix(0.1602 -0.9871 0.9871 0.1602 -63.0549 278.5305)" class="st6" cx="132.2" cy="176.3" rx="33.1" ry="33.1"/>
	
		<ellipse transform="matrix(5.530035e-02 -0.9985 0.9985 5.530035e-02 -140.9685 463.9342)" class="st6" cx="174.7" cy="306.5" rx="33.1" ry="33.1"/>
	<circle class="st6" cx="457.8" cy="46.2" r="33.1"/>
	
		<ellipse transform="matrix(7.088900e-02 -0.9975 0.9975 7.088900e-02 278.1584 653.0982)" class="st6" cx="489.7" cy="177.2" rx="33.1" ry="33.1"/>
</g>
</svg>
